<svg width="42" height="29" viewBox="0 0 42 29" fill="none" xmlns="http://www.w3.org/2000/svg">
<path d="M21.6261 19.5433L16.8768 16.7479L18.6673 13.7753C19.0847 13.0811 19.3037 12.3033 19.3043 11.5129V6.80712C19.3043 5.05285 18.5348 3.37042 17.165 2.12997C15.7951 0.889509 13.9372 0.192627 12 0.192627C10.0628 0.192627 8.20488 0.889509 6.83505 2.12997C5.46522 3.37042 4.69566 5.05285 4.69566 6.80712V11.5129C4.69631 12.3034 4.9153 13.0811 5.3327 13.7753L7.12324 16.7479L2.37392 19.5433C1.64401 19.9712 1.04425 20.558 0.629533 21.2501C0.214812 21.9421 -0.00163134 22.7173 9.2575e-06 23.5047V28.5405H24V23.5047C24.0016 22.7173 23.7852 21.9421 23.3705 21.2501C22.9557 20.558 22.356 19.9712 21.6261 19.5433ZM21.913 26.6506H2.08696V23.5047C2.08599 23.0323 2.21586 22.5671 2.46471 22.1519C2.71355 21.7367 3.07342 21.3846 3.51138 21.1278L9.8805 17.3789L7.16485 12.8704C6.91442 12.4538 6.78302 11.9872 6.78261 11.5129V6.80712C6.78261 5.55407 7.3323 4.35234 8.31075 3.4663C9.2892 2.58025 10.6163 2.08248 12 2.08248C13.3837 2.08248 14.7108 2.58025 15.6893 3.4663C16.6677 4.35234 17.2174 5.55407 17.2174 6.80712V11.5129C17.217 11.9872 17.0856 12.4538 16.8352 12.8704L14.1196 17.3789L20.4888 21.1278C20.9267 21.3846 21.2866 21.7367 21.5354 22.1519C21.7842 22.5672 21.914 23.0323 21.913 23.5047V26.6506Z" fill="#2703A5"/>
<path d="M33.0599 19.6029C33.526 20.4203 34.7043 20.4203 35.1704 19.6029L39.2411 12.4647C39.7029 11.6548 39.1181 10.6481 38.1858 10.6481H30.0444C29.1121 10.6481 28.5273 11.6548 28.9892 12.4647L33.0599 19.6029Z" fill="#2E026E"/>
</svg>
