<svg width="44" height="44" viewBox="0 0 44 44" fill="none" xmlns="http://www.w3.org/2000/svg">
<g clip-path="url(#clip0_285_979)">
<path d="M22.1189 3.8728C22.5954 3.8728 23.0524 4.06209 23.3894 4.39903C23.7263 4.73597 23.9156 5.19296 23.9156 5.66946V11.0594C23.9156 11.5359 23.7263 11.9929 23.3894 12.3299C23.0524 12.6668 22.5954 12.8561 22.1189 12.8561C21.6424 12.8561 21.1854 12.6668 20.8485 12.3299C20.5116 11.9929 20.3223 11.5359 20.3223 11.0594V5.66946C20.3223 5.19296 20.5116 4.73597 20.8485 4.39903C21.1854 4.06209 21.6424 3.8728 22.1189 3.8728ZM22.1189 30.8227C22.5954 30.8227 23.0524 31.012 23.3894 31.3489C23.7263 31.6858 23.9156 32.1428 23.9156 32.6193V38.0093C23.9156 38.4858 23.7263 38.9428 23.3894 39.2797C23.0524 39.6167 22.5954 39.806 22.1189 39.806C21.6424 39.806 21.1854 39.6167 20.8485 39.2797C20.5116 38.9428 20.3223 38.4858 20.3223 38.0093V32.6193C20.3223 32.1428 20.5116 31.6858 20.8485 31.3489C21.1854 31.012 21.6424 30.8227 22.1189 30.8227ZM40.0855 21.8394C40.0855 22.3159 39.8962 22.7729 39.5593 23.1098C39.2223 23.4468 38.7654 23.636 38.2889 23.636H32.8989C32.4224 23.636 31.9654 23.4468 31.6284 23.1098C31.2915 22.7729 31.1022 22.3159 31.1022 21.8394C31.1022 21.3629 31.2915 20.9059 31.6284 20.569C31.9654 20.232 32.4224 20.0427 32.8989 20.0427H38.2889C38.7654 20.0427 39.2223 20.232 39.5593 20.569C39.8962 20.9059 40.0855 21.3629 40.0855 21.8394ZM13.1356 21.8394C13.1356 22.3159 12.9463 22.7729 12.6094 23.1098C12.2725 23.4468 11.8155 23.636 11.339 23.636H5.949C5.4725 23.636 5.01551 23.4468 4.67857 23.1098C4.34163 22.7729 4.15234 22.3159 4.15234 21.8394C4.15234 21.3629 4.34163 20.9059 4.67857 20.569C5.01551 20.232 5.4725 20.0427 5.949 20.0427H11.339C11.8155 20.0427 12.2725 20.232 12.6094 20.569C12.9463 20.9059 13.1356 21.3629 13.1356 21.8394ZM34.8231 34.5436C34.4862 34.8804 34.0293 35.0696 33.5529 35.0696C33.0765 35.0696 32.6195 34.8804 32.2826 34.5436L28.4719 30.7328C28.1446 30.394 27.9635 29.9402 27.9676 29.4691C27.9717 28.998 28.1607 28.5474 28.4938 28.2143C28.8269 27.8811 29.2775 27.6922 29.7486 27.6881C30.2197 27.684 30.6735 27.8651 31.0124 28.1924L34.8231 32.0013C34.9901 32.1681 35.1227 32.3663 35.2131 32.5844C35.3035 32.8025 35.35 33.0363 35.35 33.2724C35.35 33.5085 35.3035 33.7423 35.2131 33.9604C35.1227 34.1785 34.9901 34.3767 34.8231 34.5436ZM15.7659 15.4864C15.429 15.8232 14.9721 16.0124 14.4957 16.0124C14.0193 16.0124 13.5624 15.8232 13.2255 15.4864L9.41655 11.6775C9.07943 11.3406 8.88994 10.8836 8.88977 10.407C8.8896 9.93039 9.07877 9.47324 9.41565 9.13611C9.75254 8.79899 10.2096 8.6095 10.6862 8.60933C11.1628 8.60916 11.6199 8.79833 11.957 9.13521L15.7659 12.9459C16.1028 13.2829 16.292 13.7398 16.292 14.2162C16.292 14.6926 16.1028 15.1495 15.7659 15.4864ZM9.41655 34.5436C9.07973 34.2066 8.89052 33.7497 8.89052 33.2733C8.89052 32.7969 9.07973 32.34 9.41655 32.0031L13.2273 28.1924C13.393 28.0208 13.5913 27.8839 13.8105 27.7897C14.0297 27.6956 14.2654 27.646 14.504 27.6439C14.7425 27.6419 14.9791 27.6873 15.1999 27.7777C15.4207 27.868 15.6213 28.0014 15.79 28.1701C15.9587 28.3388 16.0921 28.5394 16.1824 28.7602C16.2728 28.981 16.3182 29.2176 16.3162 29.4561C16.3141 29.6947 16.2645 29.9305 16.1704 30.1497C16.0762 30.3689 15.9393 30.5671 15.7677 30.7328L11.9588 34.5436C11.792 34.7106 11.5938 34.8431 11.3757 34.9335C11.1576 35.024 10.9238 35.0705 10.6877 35.0705C10.4516 35.0705 10.2178 35.024 9.99968 34.9335C9.78156 34.8431 9.58341 34.7106 9.41655 34.5436ZM28.4719 15.4864C28.1351 15.1495 27.9459 14.6926 27.9459 14.2162C27.9459 13.7398 28.1351 13.2829 28.4719 12.9459L32.2808 9.13521C32.6177 8.79809 33.0747 8.6086 33.5513 8.60843C34.0279 8.60826 34.4851 8.79743 34.8222 9.13432C35.1593 9.4712 35.3488 9.92822 35.349 10.4048C35.3492 10.8814 35.16 11.3386 34.8231 11.6757L31.0124 15.4864C30.6755 15.8232 30.2186 16.0124 29.7421 16.0124C29.2657 16.0124 28.8088 15.8232 28.4719 15.4864Z" fill="#2E026E"/>
</g>
<defs>
<clipPath id="clip0_285_979">
<rect width="43.1198" height="43.1198" fill="white" transform="translate(0.559082 0.279541)"/>
</clipPath>
</defs>
</svg>
