<svg width="19" height="15" viewBox="0 0 19 15" fill="none" xmlns="http://www.w3.org/2000/svg">
<path d="M3.28239 0.35791V12.4881C3.28239 12.6917 3.2015 12.887 3.05752 13.0309C2.91355 13.1749 2.71827 13.2558 2.51466 13.2558C2.31104 13.2558 2.11577 13.1749 1.97179 13.0309C1.82781 12.887 1.74692 12.6917 1.74692 12.4881V3.42884H0.518555V12.4881C0.519154 13.0173 0.72965 13.5247 1.10386 13.8989C1.47807 14.2731 1.98544 14.4836 2.51466 14.4842H16.948C17.4772 14.4836 17.9846 14.2731 18.3588 13.8989C18.733 13.5247 18.9435 13.0173 18.9441 12.4881V0.35791H3.28239ZM17.7157 12.4881C17.7155 12.6916 17.6345 12.8868 17.4906 13.0307C17.3467 13.1746 17.1516 13.2556 16.948 13.2558H4.35721C4.45884 13.0126 4.51104 12.7516 4.51076 12.4881V1.58628H17.7157V12.4881Z" fill="#2703A5"/>
<path d="M11.2669 2.8147H5.73926V8.95655H11.2669V2.8147ZM10.0386 7.72818H6.96763V4.04307H10.0386V7.72818Z" fill="#2703A5"/>
<path d="M16.4876 2.8147H12.4954V4.04307H16.4876V2.8147Z" fill="#2703A5"/>
<path d="M16.4876 5.27124H12.4954V6.49961H16.4876V5.27124Z" fill="#2703A5"/>
<path d="M16.4876 7.72803H12.4954V8.9564H16.4876V7.72803Z" fill="#2703A5"/>
</svg>
