<svg width="35" height="34" viewBox="0 0 35 34" fill="none" xmlns="http://www.w3.org/2000/svg">
<path d="M30.3349 4.30293e-07C29.3252 -0.000433183 28.3427 0.326863 27.535 0.932696C26.7272 1.53853 26.138 2.39016 25.8557 3.3596C25.5735 4.32903 25.6135 5.36389 25.9698 6.30862C26.3261 7.25335 26.9794 8.05691 27.8315 8.59853L24.7874 19.2529C24.6935 19.2472 24.599 19.2434 24.5036 19.2434C23.5001 19.2423 22.5233 19.5666 21.7196 20.1675L16.0958 15.481C16.362 14.691 16.4117 13.8441 16.2397 13.0285C16.0677 12.2128 15.6803 11.4581 15.1177 10.8429C14.5552 10.2277 13.8381 9.77447 13.041 9.53038C12.2439 9.28629 11.396 9.26025 10.5854 9.45495C9.77484 9.64966 9.03126 10.058 8.43201 10.6375C7.83277 11.217 7.39975 11.9465 7.17801 12.7501C6.95627 13.5537 6.95391 14.402 7.17118 15.2068C7.38844 16.0116 7.81739 16.7435 8.4134 17.3264L5.11199 23.9295C4.96861 23.9161 4.82377 23.9085 4.67704 23.9085C3.55945 23.9071 2.47838 24.3064 1.63006 25.034C0.781748 25.7616 0.222421 26.7692 0.0536065 27.874C-0.115208 28.9787 0.117681 30.1074 0.71 31.0552C1.30232 32.0029 2.21481 32.7068 3.28183 33.0392C4.34886 33.3716 5.49969 33.3104 6.52545 32.8667C7.5512 32.423 8.38388 31.6263 8.87234 30.6211C9.3608 29.6159 9.47267 28.4689 9.18763 27.3882C8.9026 26.3076 8.23956 25.3649 7.31886 24.7314L10.4386 18.4927C11.1965 18.7018 11.9949 18.7154 12.7595 18.5325C13.524 18.3495 14.2297 17.9758 14.8108 17.4463L20.2558 21.9839C19.8861 22.7987 19.7585 23.7027 19.8882 24.5881C20.0179 25.4734 20.3996 26.3028 20.9876 26.9772C21.5756 27.6517 22.3451 28.1428 23.2045 28.3921C24.0639 28.6413 24.9768 28.6382 25.8344 28.383C26.6921 28.1278 27.4582 27.6313 28.0415 26.9528C28.6248 26.2743 29.0007 25.4423 29.1243 24.5561C29.2479 23.6699 29.114 22.7668 28.7387 21.9545C28.3633 21.1423 27.7622 20.4552 27.0071 19.975L30.0511 9.32067C30.145 9.32635 30.2395 9.33014 30.3349 9.33014C31.5722 9.33014 32.7588 8.83864 33.6336 7.96377C34.5085 7.0889 35 5.90232 35 4.66507C35 3.42782 34.5085 2.24124 33.6336 1.36637C32.7588 0.491498 31.5722 4.30293e-07 30.3349 4.30293e-07ZM4.67704 30.9061C4.21571 30.9061 3.76474 30.7693 3.38116 30.513C2.99757 30.2567 2.69861 29.8924 2.52206 29.4662C2.34552 29.04 2.29933 28.571 2.38933 28.1185C2.47933 27.666 2.70148 27.2504 3.02769 26.9242C3.3539 26.598 3.76952 26.3758 4.22199 26.2858C4.67446 26.1958 5.14345 26.242 5.56967 26.4186C5.99588 26.5951 6.36017 26.8941 6.61648 27.2777C6.87278 27.6613 7.00958 28.1122 7.00958 28.5736C7.00888 29.192 6.76291 29.7849 6.32563 30.2221C5.88834 30.6594 5.29546 30.9054 4.67704 30.9061ZM11.6746 16.3277C11.2133 16.3277 10.7623 16.1909 10.3788 15.9346C9.99518 15.6783 9.69621 15.314 9.51967 14.8878C9.34312 14.4616 9.29693 13.9926 9.38693 13.5402C9.47693 13.0877 9.69909 12.6721 10.0253 12.3459C10.3515 12.0196 10.7671 11.7975 11.2196 11.7075C11.6721 11.6175 12.1411 11.6637 12.5673 11.8402C12.9935 12.0168 13.3578 12.3157 13.6141 12.6993C13.8704 13.0829 14.0072 13.5339 14.0072 13.9952C14.0065 14.6136 13.7605 15.2065 13.3232 15.6438C12.8859 16.0811 12.2931 16.3271 11.6746 16.3277ZM24.5036 26.241C24.0423 26.241 23.5913 26.1042 23.2077 25.8479C22.8241 25.5916 22.5252 25.2273 22.3486 24.8011C22.1721 24.3749 22.1259 23.9059 22.2159 23.4534C22.3059 23.001 22.528 22.5853 22.8542 22.2591C23.1805 21.9329 23.5961 21.7108 24.0485 21.6208C24.501 21.5308 24.97 21.577 25.3962 21.7535C25.8224 21.93 26.1867 22.229 26.443 22.6126C26.6993 22.9962 26.8361 23.4472 26.8361 23.9085C26.8354 24.5269 26.5895 25.1198 26.1522 25.5571C25.7149 25.9944 25.122 26.2403 24.5036 26.241ZM30.3349 6.99761C29.8736 6.99761 29.4226 6.86081 29.039 6.6045C28.6555 6.3482 28.3565 5.98391 28.1799 5.55769C28.0034 5.13148 27.9572 4.66248 28.0472 4.21002C28.1372 3.75755 28.3594 3.34193 28.6856 3.01572C29.0118 2.68951 29.4274 2.46736 29.8799 2.37735C30.3323 2.28735 30.8013 2.33355 31.2276 2.51009C31.6538 2.68663 32.0181 2.9856 32.2744 3.36918C32.5307 3.75277 32.6675 4.20374 32.6675 4.66507C32.6668 5.28348 32.4208 5.87637 31.9835 6.31366C31.5462 6.75094 30.9533 6.99691 30.3349 6.99761Z" fill="#2703A5"/>
</svg>
