<svg width="20" height="20" viewBox="0 0 20 20" fill="none" xmlns="http://www.w3.org/2000/svg">
<path d="M9.71097 0C7.16081 0.0013599 4.71331 1.00476 2.89608 2.79388V0H1.59993V5.18458H6.78451V3.88844H3.63678C4.42246 3.06951 5.36549 2.41776 6.40928 1.9723C7.45307 1.52684 8.5761 1.29686 9.71097 1.29615C14.3508 1.29615 18.1258 5.07117 18.1258 9.71097C18.1258 14.3508 14.3508 18.1258 9.71097 18.1258C5.07117 18.1258 1.29615 14.3508 1.29615 9.71097H0C-2.39066e-06 11.6316 0.569535 13.5091 1.63659 15.1061C2.70364 16.7031 4.22029 17.9477 5.99474 18.6827C7.76919 19.4177 9.72174 19.6101 11.6055 19.2354C13.4892 18.8607 15.2196 17.9358 16.5777 16.5777C17.9358 15.2196 18.8607 13.4892 19.2354 11.6055C19.6101 9.72174 19.4177 7.76919 18.6827 5.99474C17.9477 4.22029 16.7031 2.70364 15.1061 1.63659C13.5091 0.569535 11.6316 -2.39066e-06 9.71097 0Z" fill="#2703A5"/>
<path d="M9.05292 3.88647L9.03125 11.0173H14.2375V9.72112H10.3314L10.3491 3.89044L9.05292 3.88647Z" fill="#2703A5"/>
</svg>
