<svg width="14" height="11" viewBox="0 0 14 11" fill="none" xmlns="http://www.w3.org/2000/svg">
<path d="M13.2616 3.85415C13.2007 3.77569 13.1227 3.71225 13.0335 3.6687C12.9442 3.62515 12.8462 3.60267 12.7469 3.60297H10.9456V2.17679C10.9454 2.01007 10.8791 1.85023 10.7612 1.73234C10.6433 1.61445 10.4834 1.54813 10.3167 1.54795H6.60799L6.12442 0.386926C6.07684 0.27221 5.99628 0.1742 5.89294 0.105318C5.7896 0.0364359 5.66814 -0.000218221 5.54395 9.77409e-07H1.02912C0.862396 0.000195413 0.702559 0.0665113 0.584669 0.184401C0.466779 0.302291 0.400463 0.462128 0.400269 0.628849V10.5454H11.8477L13.3804 4.4144C13.4048 4.31815 13.4068 4.21759 13.3862 4.12046C13.3656 4.02333 13.3229 3.93222 13.2616 3.85415ZM1.27099 9.67465V0.870718H5.3827L6.02758 2.41866H10.0749V3.60297H3.70864C3.56294 3.60279 3.42138 3.6514 3.30654 3.74105C3.19169 3.8307 3.11018 3.95624 3.075 4.09762L1.68085 9.67465H1.27099ZM11.1679 9.67465H2.57837L3.87859 4.47369H12.4681L11.1679 9.67465Z" fill="white"/>
</svg>
