<svg width="28" height="31" viewBox="0 0 28 31" fill="none" xmlns="http://www.w3.org/2000/svg">
<path d="M26.8467 21.5575L23.8729 16.0672V10.3508C23.8729 4.64335 19.2295 0 13.5221 0C7.81463 0 3.17127 4.64335 3.17127 10.3508V16.0672L0.197322 21.5574C0.0624566 21.8064 -0.00542188 22.0861 0.000338333 22.3692C0.00609854 22.6523 0.0852997 22.929 0.230181 23.1722C0.375063 23.4155 0.580655 23.6169 0.826812 23.7568C1.07297 23.8967 1.35125 23.9703 1.63438 23.9703H7.55443C7.53822 24.1498 7.52943 24.3312 7.52943 24.515C7.52943 26.1044 8.16079 27.6286 9.28462 28.7524C10.4084 29.8763 11.9327 30.5076 13.522 30.5076C15.1113 30.5076 16.6356 29.8763 17.7594 28.7524C18.8832 27.6286 19.5146 26.1044 19.5146 24.515C19.5146 24.3312 19.5058 24.1498 19.4896 23.9703H25.4096C25.6927 23.9702 25.971 23.8967 26.2171 23.7568C26.4632 23.6168 26.6688 23.4154 26.8136 23.1722C26.9585 22.9289 27.0377 22.6522 27.0434 22.3692C27.0492 22.0861 26.9813 21.8064 26.8465 21.5575H26.8467ZM17.3355 24.515C17.3359 25.0391 17.2284 25.5576 17.0195 26.0383C16.8106 26.5189 16.5048 26.9513 16.1214 27.3085C15.7379 27.6657 15.2849 27.9401 14.7907 28.1144C14.2965 28.2887 13.7717 28.3594 13.249 28.3218C12.7262 28.2843 12.2169 28.1394 11.7526 27.8963C11.2884 27.6531 10.8793 27.3169 10.5508 26.9085C10.2223 26.5002 9.98148 26.0286 9.84339 25.523C9.7053 25.0175 9.67289 24.4889 9.74818 23.9703H17.2959C17.3221 24.1507 17.3353 24.3327 17.3355 24.515ZM2.549 21.7912L5.35039 16.6195V10.3508C5.35039 8.18353 6.21133 6.10503 7.74382 4.57255C9.27631 3.04006 11.3548 2.17912 13.5221 2.17912C15.6893 2.17912 17.7678 3.04006 19.3003 4.57255C20.8328 6.10503 21.6938 8.18353 21.6938 10.3508V16.6195L24.495 21.7912H2.549Z" fill="#2703A5"/>
</svg>
