<svg width="17" height="17" viewBox="0 0 17 17" fill="none" xmlns="http://www.w3.org/2000/svg">
<path d="M15.6771 0.621277H5.51379C5.30099 0.621277 5.09691 0.705812 4.94643 0.856285C4.79596 1.00676 4.71143 1.21084 4.71143 1.42364V11.587C4.71143 11.7998 4.79596 12.0038 4.94643 12.1543C5.09691 12.3048 5.30099 12.3893 5.51379 12.3893H15.6771C15.8899 12.3893 16.094 12.3048 16.2445 12.1543C16.3949 12.0038 16.4795 11.7998 16.4795 11.587V1.42364C16.4795 1.21084 16.3949 1.00676 16.2445 0.856285C16.094 0.705812 15.8899 0.621277 15.6771 0.621277ZM15.4096 11.3195H5.78125V1.6911H15.4096V11.3195Z" fill="white"/>
<path d="M3.6416 13.4592V2.76099H2.57178V13.7267C2.57178 13.9395 2.65631 14.1436 2.80679 14.294C2.95726 14.4445 3.16134 14.529 3.37414 14.529H14.3398V13.4592H3.6416Z" fill="white"/>
<path d="M1.50195 15.5989V4.90063H0.432129V15.8663C0.432129 16.0791 0.516664 16.2832 0.667137 16.4337C0.81761 16.5841 1.02169 16.6687 1.2345 16.6687H12.2002V15.5989H1.50195Z" fill="white"/>
</svg>
