<svg width="43" height="43" viewBox="0 0 43 43" fill="none" xmlns="http://www.w3.org/2000/svg">
<path d="M36.62 7.08167C32.7064 3.16803 27.3984 0.96936 21.8636 0.96936C16.3289 0.96936 11.0208 3.16803 7.10719 7.08167C3.19354 10.9953 0.994873 16.3034 0.994873 21.8381C0.994873 27.3728 3.19354 32.6809 7.10719 36.5945C11.0208 40.5082 16.3289 42.7069 21.8636 42.7069C27.3984 42.7069 32.7064 40.5082 36.62 36.5945C40.5337 32.6809 42.7324 27.3728 42.7324 21.8381C42.7324 16.3034 40.5337 10.9953 36.62 7.08167ZM21.8636 39.9098C11.8991 39.9098 3.79197 31.8028 3.79197 21.8381C3.79197 11.8734 11.8989 3.76646 21.8636 3.76646C31.8283 3.76646 39.9353 11.8734 39.9353 21.8381C39.9353 31.8028 31.8283 39.9098 21.8636 39.9098Z" fill="#04CE7A"/>
<path d="M18.7189 26.2136L12.302 19.7968L10.3242 21.7745L18.7189 30.1692L33.3598 15.5284L31.3819 13.5507L18.7189 26.2136Z" fill="#04CE7A"/>
</svg>
