<svg width="15" height="14" viewBox="0 0 15 14" fill="none" xmlns="http://www.w3.org/2000/svg">
<path d="M8.06727 12.0935V5.68909H7.15872V12.0935L5.68567 10.6204L5.04321 11.2628L7.61299 13.8327L10.1828 11.2628L9.54031 10.6204L8.06727 12.0935Z" fill="white"/>
<path d="M11.7019 4.32639C11.7019 2.07205 9.86779 0.237915 7.61344 0.237915C5.3591 0.237915 3.52497 2.07205 3.52497 4.32639C2.80208 4.32639 2.1088 4.61356 1.59764 5.12472C1.08648 5.63587 0.799316 6.32915 0.799316 7.05204C0.799316 7.77493 1.08648 8.46821 1.59764 8.97937C2.1088 9.49053 2.80208 9.77769 3.52497 9.77769H5.79634V8.86914H3.52497C3.04304 8.86914 2.58086 8.6777 2.24008 8.33693C1.89931 7.99615 1.70787 7.53397 1.70787 7.05204C1.70787 6.57012 1.89931 6.10793 2.24008 5.76716C2.58086 5.42639 3.04304 5.23494 3.52497 5.23494H4.43352V4.32639C4.43352 3.48302 4.76855 2.6742 5.3649 2.07784C5.96125 1.48149 6.77008 1.14647 7.61344 1.14647C8.45681 1.14647 9.26564 1.48149 9.86199 2.07784C10.4583 2.6742 10.7934 3.48302 10.7934 4.32639V5.23494H11.7019C12.1838 5.23494 12.646 5.42639 12.9868 5.76716C13.3276 6.10793 13.519 6.57012 13.519 7.05204C13.519 7.53397 13.3276 7.99615 12.9868 8.33693C12.646 8.6777 12.1838 8.86914 11.7019 8.86914H9.43055V9.77769H11.7019C12.4248 9.77769 13.1181 9.49053 13.6292 8.97937C14.1404 8.46821 14.4276 7.77493 14.4276 7.05204C14.4276 6.32915 14.1404 5.63587 13.6292 5.12472C13.1181 4.61356 12.4248 4.32639 11.7019 4.32639Z" fill="white"/>
</svg>
