<svg width="35" height="38" viewBox="0 0 35 38" fill="none" xmlns="http://www.w3.org/2000/svg">
<path d="M17.4996 11.7258C16.1569 11.7258 14.8444 12.124 13.728 12.8699C12.6116 13.6159 11.7415 14.6761 11.2277 15.9166C10.7139 17.157 10.5794 18.522 10.8414 19.8389C11.1033 21.1557 11.7499 22.3654 12.6993 23.3148C13.6487 24.2642 14.8583 24.9107 16.1752 25.1727C17.492 25.4346 18.857 25.3002 20.0975 24.7863C21.3379 24.2725 22.3982 23.4024 23.1441 22.286C23.8901 21.1696 24.2882 19.8571 24.2882 18.5145C24.2862 16.7146 23.5703 14.9891 22.2976 13.7164C21.0249 12.4438 19.2994 11.7279 17.4996 11.7258ZM17.4996 22.8345C16.6452 22.8345 15.8099 22.5811 15.0995 22.1064C14.3891 21.6318 13.8354 20.9571 13.5084 20.1677C13.1814 19.3783 13.0959 18.5097 13.2625 17.6717C13.4292 16.8337 13.8407 16.0639 14.4448 15.4597C15.049 14.8556 15.8188 14.4441 16.6568 14.2774C17.4948 14.1107 18.3634 14.1963 19.1528 14.5233C19.9422 14.8502 20.6169 15.404 21.0916 16.1144C21.5663 16.8248 21.8196 17.66 21.8196 18.5145C21.8183 19.6598 21.3628 20.7579 20.5529 21.5678C19.743 22.3777 18.6449 22.8332 17.4996 22.8345Z" fill="#2703A5"/>
<path d="M34.4366 23.6306L31.9858 21.613C32.4202 19.5702 32.4202 17.4588 31.9858 15.4159L34.4366 13.3984C34.7193 13.1668 34.9103 12.8421 34.9754 12.4825C35.0405 12.123 34.9755 11.7519 34.7919 11.4359L32.2761 7.07863C32.0943 6.76159 31.8054 6.51968 31.4614 6.39627C31.1174 6.27286 30.7406 6.27601 30.3987 6.40516L27.424 7.51965C25.8743 6.11956 24.0461 5.06293 22.0594 4.4191L21.5374 1.28931C21.4784 0.928609 21.2927 0.600747 21.0138 0.364486C20.735 0.128225 20.3811 -0.000988732 20.0156 5.69732e-06H14.9841C14.6186 -0.000976077 14.2647 0.128232 13.9858 0.364475C13.707 0.600717 13.5213 0.928553 13.4622 1.28923L12.9406 4.4191C10.9538 5.06291 9.12563 6.11954 7.57599 7.51965L4.60095 6.40501C4.25904 6.27594 3.88236 6.27285 3.53837 6.39627C3.19439 6.51969 2.9056 6.76156 2.72374 7.07855L0.208006 11.4362C0.0245291 11.7522 -0.0404464 12.1232 0.0247172 12.4828C0.0898808 12.8424 0.280927 13.167 0.563638 13.3985L3.01426 15.4159C2.57979 17.4588 2.57979 19.5702 3.01426 21.613L0.563407 23.6306C0.28074 23.8622 0.0897467 24.1868 0.0246267 24.5464C-0.0404932 24.906 0.0245135 25.277 0.208006 25.593L2.72381 29.9503C2.90569 30.2673 3.19453 30.5092 3.53857 30.6326C3.8826 30.7561 4.25933 30.7529 4.60126 30.6238L7.57607 29.5093C9.12571 30.9094 10.9539 31.966 12.9406 32.6098L13.4623 35.7396C13.5214 36.1003 13.707 36.4282 13.9859 36.6644C14.2647 36.9007 14.6186 37.0299 14.9841 37.0289H20.0156C20.381 37.0299 20.7349 36.9007 21.0138 36.6645C21.2927 36.4282 21.4783 36.1004 21.5374 35.7397L22.0592 32.6098C24.0459 31.966 25.8741 30.9094 27.4237 29.5093L30.3987 30.6239C30.7406 30.753 31.1173 30.7561 31.4613 30.6326C31.8052 30.5092 32.094 30.2674 32.2759 29.9504L34.7915 25.5928C34.975 25.2769 35.0401 24.9059 34.9751 24.5464C34.9101 24.1868 34.7192 23.8622 34.4366 23.6306ZM30.5304 28.037L26.8191 26.6466L26.2571 27.2123C24.7109 28.7708 22.7768 29.8886 20.6545 30.4503L19.8831 30.6536L19.2316 34.5603H15.7686L15.1174 30.6536L14.346 30.4503C12.2237 29.8886 10.2896 28.7708 8.74341 27.2123L8.18141 26.6466L4.4695 28.037L2.73832 25.0379L5.79544 22.5212L5.58715 21.7518C5.01434 19.6316 5.01434 17.3974 5.58715 15.2771L5.79544 14.5079L2.73832 11.9911L4.46988 8.99194L8.18118 10.3824L8.74317 9.81661C10.2894 8.25812 12.2234 7.14037 14.3457 6.57866L15.1172 6.37531L15.7683 2.4686H19.2316L19.8829 6.37531L20.6543 6.57866C22.7766 7.14037 24.7106 8.25812 26.2569 9.81661L26.8188 10.3824L30.5301 8.99194L32.2618 11.9911L29.2047 14.5079L29.413 15.2771C29.9858 17.3974 29.9858 19.6316 29.413 21.7518L29.2047 22.5212L32.2618 25.0378L30.5304 28.037Z" fill="#2703A5"/>
</svg>
