<svg width="19" height="19" viewBox="0 0 19 19" fill="none" xmlns="http://www.w3.org/2000/svg">
<path d="M8.79859 13.7458C8.54896 13.7458 8.34668 13.5434 8.34668 13.2938V7.99415C8.34668 7.74451 8.54896 7.54224 8.79859 7.54224H9.74057C9.9902 7.54224 10.1925 7.74451 10.1925 7.99415V13.2938C10.1925 13.5434 9.9902 13.7458 9.74057 13.7458H8.79859Z" fill="#A0F1F2"/>
<path d="M9.27342 6.23251C8.99901 6.23251 8.76357 6.14151 8.56717 5.95953C8.37356 5.77466 8.27686 5.55367 8.27686 5.29658C8.27686 5.04237 8.37356 4.82429 8.56717 4.6423C8.76357 4.45742 8.99901 4.36499 9.27342 4.36499C9.54782 4.36499 9.78182 4.45742 9.97533 4.6423C10.1718 4.82429 10.27 5.04237 10.27 5.29658C10.27 5.55367 10.1718 5.77466 9.97533 5.95953C9.78182 6.14151 9.54782 6.23251 9.27342 6.23251Z" fill="#A0F1F2"/>
<path fill-rule="evenodd" clip-rule="evenodd" d="M18.31 9.2717C18.31 14.2634 14.2634 18.31 9.2717 18.31C4.27998 18.31 0.233398 14.2634 0.233398 9.2717C0.233398 4.27998 4.27998 0.233398 9.2717 0.233398C14.2634 0.233398 18.31 4.27998 18.31 9.2717ZM16.5023 9.2717C16.5023 13.2651 13.2651 16.5023 9.2717 16.5023C5.27832 16.5023 2.04106 13.2651 2.04106 9.2717C2.04106 5.27832 5.27832 2.04106 9.2717 2.04106C13.2651 2.04106 16.5023 5.27832 16.5023 9.2717Z" fill="#A0F1F2"/>
</svg>
