<svg width="37" height="37" viewBox="0 0 37 37" fill="none" xmlns="http://www.w3.org/2000/svg">
<path d="M18.5 0C8.28276 0 0 8.28268 0 18.5C0 28.7173 8.28276 37 18.5 37C28.7172 37 37 28.7172 37 18.5C37 8.28276 28.7174 0 18.5 0ZM29.8373 29.8373C27.026 32.64 23.2719 34.2957 19.3066 34.4817C15.3412 34.6678 11.4486 33.3708 8.3873 30.8436C5.32596 28.3164 3.31518 24.7399 2.74675 20.8111C2.17833 16.8823 3.09298 12.8826 5.3125 9.59133C7.53201 6.30007 10.8974 3.95303 14.7529 3.00754C18.6083 2.06205 22.6777 2.58585 26.1681 4.47687C29.6585 6.36789 32.3198 9.49066 33.6335 13.2367C34.9472 16.9827 34.8191 21.0837 33.2743 24.7405C32.4692 26.6458 31.3019 28.3767 29.8373 29.8373Z" fill="#2703A5"/>
<path d="M17.2198 11.481L23.0051 17.2664H8.625V19.7331H23.0051L17.2198 25.5185L18.964 27.2626L27.7269 18.4997L18.964 9.73682L17.2198 11.481Z" fill="#2703A5"/>
</svg>
