<svg width="37" height="37" viewBox="0 0 37 37" fill="none" xmlns="http://www.w3.org/2000/svg">
<path d="M18.5 0C28.7172 0 37 8.28268 37 18.5C37 28.7173 28.7172 37 18.5 37C8.28276 37 0 28.7172 0 18.5C0 8.28276 8.2826 0 18.5 0ZM7.16274 29.8373C9.97401 32.64 13.7281 34.2957 17.6934 34.4817C21.6588 34.6678 25.5514 33.3708 28.6127 30.8436C31.674 28.3164 33.6848 24.7399 34.2532 20.8111C34.8217 16.8823 33.907 12.8826 31.6875 9.59133C29.468 6.30007 26.1026 3.95303 22.2471 3.00754C18.3917 2.06205 14.3223 2.58585 10.8319 4.47687C7.34153 6.36789 4.68021 9.49066 3.36652 13.2367C2.05282 16.9827 2.18085 21.0837 3.72567 24.7405C4.5308 26.6458 5.69807 28.3767 7.16274 29.8373Z" fill="#2703A5"/>
<path d="M19.7802 11.481L13.9949 17.2664H28.375V19.7331H13.9949L19.7802 25.5185L18.036 27.2626L9.27313 18.4997L18.036 9.73682L19.7802 11.481Z" fill="#2703A5"/>
</svg>
