<svg width="17" height="17" viewBox="0 0 17 17" fill="none" xmlns="http://www.w3.org/2000/svg">
<path d="M-3.71547e-07 8.5C-1.66348e-07 13.1944 3.80556 17 8.5 17C13.1944 17 17 13.1944 17 8.5C17 3.80559 13.1944 -5.76746e-07 8.5 -3.71547e-07C3.80559 -1.66348e-07 -5.76749e-07 3.80552 -3.71547e-07 8.5ZM13.709 3.29099C14.9968 4.58265 15.7575 6.30749 15.843 8.12941C15.9284 9.95133 15.3325 11.7398 14.1714 13.1464C13.0102 14.5529 11.367 15.4768 9.56186 15.738C7.75674 15.9991 5.91903 15.5789 4.40683 14.5591C2.89462 13.5393 1.81626 11.9931 1.38184 10.2217C0.94743 8.45022 1.18809 6.58051 2.05694 4.97682C2.92578 3.37313 4.36057 2.15037 6.08173 1.54678C7.80288 0.943187 9.68711 1.00201 11.3673 1.71179C12.2427 2.08172 13.038 2.61803 13.709 3.29099Z" fill="white"/>
<path d="M5.27501 9.08815L7.93317 6.43002L7.93317 13.0371L9.0665 13.0371L9.0665 6.43002L11.7247 9.08815L12.526 8.28678L8.49983 4.26058L4.47363 8.28678L5.27501 9.08815Z" fill="white"/>
</svg>
